<svg width="112.000000" height="112.000000" viewBox="0 0 112 112" fill="none" xmlns="http://www.w3.org/2000/svg" xmlns:xlink="http://www.w3.org/1999/xlink">
	<desc>
			Created with Pixso.
	</desc>
	<defs>
		<filter id="filter_1_11116_dd" x="0.000000" y="0.000000" width="112.000000" height="112.000000" filterUnits="userSpaceOnUse" color-interpolation-filters="sRGB">
			<feFlood flood-opacity="0" result="BackgroundImageFix"/>
			<feColorMatrix in="SourceAlpha" type="matrix" values="0 0 0 0 0 0 0 0 0 0 0 0 0 0 0 0 0 0 127 0" result="hardAlpha"/>
			<feOffset dx="0" dy="10"/>
			<feGaussianBlur stdDeviation="6.66667"/>
			<feComposite in2="hardAlpha" operator="out" k2="-1" k3="1"/>
			<feColorMatrix type="matrix" values="0 0 0 0 0.92941 0 0 0 0 0.75294 0 0 0 0 0.47059 0 0 0 0.2 0"/>
			<feBlend mode="normal" in2="BackgroundImageFix" result="effect_dropShadow_1"/>
			<feBlend mode="normal" in="SourceGraphic" in2="effect_dropShadow_1" result="shape"/>
		</filter>
	</defs>
	<g filter="url(#filter_1_11116_dd)">
		<circle id="Ellipse" cx="56.000000" cy="46.000000" r="36.000000" fill="#E3B873" fill-opacity="1.000000"/>
	</g>
	<path id="Vector" d="M56.33 53.32C55.98 53.32 55.7 53.6 55.7 53.94L55.7 55.27C55.7 55.61 55.98 55.89 56.33 55.89C56.69 55.89 56.97 55.61 56.97 55.27L56.97 53.94C56.97 53.6 56.69 53.32 56.33 53.32Z" fill="#FFFFFF" fill-opacity="1.000000" fill-rule="nonzero"/>
	<path id="Vector" d="M55.65 53.68C55.61 53.76 55.6 53.85 55.6 53.94L55.6 55.27C55.6 55.37 55.61 55.45 55.65 55.54C55.68 55.63 55.74 55.71 55.81 55.78C55.88 55.85 55.96 55.9 56.04 55.93C56.13 55.97 56.23 55.99 56.33 55.99C56.44 55.99 56.54 55.97 56.63 55.93C56.71 55.9 56.79 55.85 56.85 55.78C56.93 55.71 56.99 55.63 57.02 55.54C57.05 55.45 57.07 55.36 57.07 55.27L57.07 53.94C57.07 53.85 57.05 53.76 57.02 53.68C56.99 53.59 56.93 53.51 56.85 53.43C56.79 53.37 56.71 53.31 56.63 53.28C56.54 53.24 56.44 53.22 56.33 53.22C56.23 53.22 56.13 53.24 56.04 53.28C55.96 53.31 55.88 53.37 55.81 53.43C55.74 53.51 55.68 53.59 55.65 53.68ZM55.7 53.94C55.7 53.6 55.98 53.32 56.33 53.32C56.69 53.32 56.97 53.6 56.97 53.94L56.97 55.27C56.97 55.61 56.69 55.89 56.33 55.89C55.98 55.89 55.7 55.61 55.7 55.27L55.7 53.94Z" fill="#FFFFFF" fill-opacity="1.000000" fill-rule="evenodd"/>
	<path id="Vector" d="M75.61 44.43C75.36 44.18 75.03 44.05 74.68 44.05C74.68 44.05 74.68 44.05 74.68 44.05L73.04 44.05C73.02 44.05 73.01 44.03 73 44.01C72.55 41.86 71.55 39.83 70.09 38.15C68.68 36.52 66.88 35.24 64.86 34.43C64.54 33.1 63.85 31.72 62.5 30.69C61.19 29.68 59.88 29.49 59.82 29.48C59.64 29.46 59.45 29.51 59.31 29.63C59.17 29.75 59.09 29.92 59.09 30.1L59.09 33.45L56.78 33.45C56.21 31.54 54.4 30.14 52.26 30.14C50.07 30.14 48.23 31.6 47.7 33.57C44.55 33.99 41.65 35.48 39.5 37.79C37.24 40.22 36 43.37 36 46.66C36 54.03 39.92 60.03 41.12 61.69C41.5 62.21 42.11 62.51 42.75 62.51L45.46 62.51C46.56 62.51 47.46 61.64 47.46 60.57L47.46 59.71C48.15 59.81 48.84 59.86 49.54 59.86L55.7 59.86L55.7 60.57C55.7 61.64 56.59 62.51 57.69 62.51L60.67 62.51C61.61 62.51 62.43 61.87 62.62 60.98L62.95 59.49C67.14 58.49 70.5 55.63 72.16 51.92L74.68 51.92C75.4 51.92 76 51.34 76 50.63L76 45.33C76 44.99 75.86 44.67 75.61 44.43ZM52.26 31.38C54.15 31.38 55.7 32.88 55.7 34.73C55.7 35.21 55.59 35.67 55.4 36.1L49.12 36.1C48.92 35.67 48.82 35.21 48.82 34.73C48.82 32.88 50.36 31.38 52.26 31.38ZM74.72 50.63C74.72 50.65 74.7 50.67 74.68 50.67L72.64 50.67C72.98 49.61 73.2 48.5 73.26 47.35C73.28 47.01 73.01 46.72 72.66 46.7C72.3 46.68 72 46.95 71.99 47.29C71.72 52.36 68.18 56.69 63.25 58.12L64.14 54.07C64.21 53.74 63.99 53.41 63.65 53.34C63.31 53.27 62.97 53.48 62.89 53.81L61.38 60.72C61.31 61.04 61.01 61.27 60.67 61.27L57.69 61.27C57.3 61.27 56.97 60.96 56.97 60.57L56.97 57.92C56.97 57.58 56.69 57.3 56.33 57.3C55.98 57.3 55.7 57.58 55.7 57.92L55.7 58.62L49.54 58.62C48.84 58.62 48.14 58.56 47.46 58.45L47.46 53.94C47.46 53.6 47.17 53.32 46.82 53.32C46.47 53.32 46.19 53.6 46.19 53.94L46.19 60.57C46.19 60.96 45.86 61.27 45.46 61.27L42.75 61.27C42.52 61.27 42.3 61.16 42.17 60.98C41.02 59.39 37.27 53.67 37.27 46.66C37.27 43.68 38.4 40.83 40.44 38.63C42.32 36.61 44.82 35.29 47.55 34.85C47.56 35.28 47.63 35.7 47.76 36.1L47.5 36.1C47.15 36.1 46.87 36.38 46.87 36.72C46.87 37.06 47.15 37.34 47.5 37.34L57.01 37.34C57.37 37.34 57.65 37.06 57.65 36.72C57.65 36.38 57.37 36.1 57.01 36.1L56.76 36.1C56.9 35.66 56.97 35.2 56.97 34.73C56.97 34.72 56.97 34.71 56.97 34.69L59.09 34.69L59.09 36.06C59.09 36.4 59.38 36.68 59.73 36.68C60.08 36.68 60.37 36.4 60.37 36.06L60.37 30.91C61.58 31.36 63.85 32.73 63.85 36.72C63.85 37.06 64.14 37.34 64.49 37.34C64.84 37.34 65.12 37.06 65.12 36.72C65.12 36.46 65.11 36.18 65.09 35.89C66.63 36.62 68.01 37.67 69.12 38.95C70.44 40.47 71.35 42.31 71.76 44.25C71.88 44.86 72.42 45.29 73.04 45.29L74.68 45.29C74.68 45.29 74.7 45.29 74.71 45.3C74.72 45.32 74.72 45.33 74.72 45.33L74.72 50.63L74.72 50.63Z" fill="#FFFFFF" fill-opacity="1.000000" fill-rule="nonzero"/>
	<path id="Vector" d="M75.02 43.99C74.91 43.96 74.79 43.95 74.68 43.95L74.68 43.95L73.09 43.95C73.02 43.62 72.94 43.29 72.85 42.97C72.63 42.24 72.35 41.54 72.01 40.86C71.78 40.39 71.52 39.94 71.24 39.5C70.91 39.01 70.56 38.53 70.16 38.08C69.95 37.83 69.72 37.59 69.49 37.35C68.96 36.82 68.38 36.34 67.76 35.9C67.28 35.56 66.78 35.25 66.26 34.97C65.84 34.75 65.4 34.54 64.95 34.36C64.68 33.26 64.21 32.33 63.56 31.55C63.27 31.21 62.93 30.89 62.56 30.61C62.36 30.45 62.14 30.3 61.92 30.17C61.54 29.95 61.15 29.76 60.73 29.62C60.51 29.54 60.3 29.48 60.1 29.44C59.99 29.41 59.91 29.39 59.84 29.38C59.78 29.38 59.73 29.37 59.68 29.38C59.63 29.38 59.57 29.39 59.52 29.41C59.47 29.42 59.42 29.44 59.37 29.47C59.32 29.49 59.29 29.52 59.25 29.55C59.21 29.59 59.17 29.63 59.13 29.68C59.11 29.71 59.08 29.75 59.06 29.8C59.04 29.85 59.02 29.9 59.01 29.95C59 30 58.99 30.05 58.99 30.1L58.99 33.35L56.86 33.35C56.8 33.18 56.74 33.02 56.67 32.86C56.55 32.58 56.4 32.32 56.22 32.07C56.1 31.9 55.96 31.73 55.82 31.58C55.62 31.37 55.41 31.17 55.17 31C54.97 30.85 54.76 30.72 54.54 30.6C54.31 30.48 54.07 30.38 53.82 30.29C53.62 30.22 53.41 30.17 53.21 30.13C52.9 30.07 52.58 30.04 52.26 30.04C51.93 30.04 51.61 30.07 51.3 30.13C51.08 30.17 50.87 30.23 50.66 30.3C50.41 30.39 50.17 30.5 49.93 30.62C49.71 30.74 49.5 30.88 49.3 31.04C49.05 31.22 48.83 31.42 48.63 31.65C48.49 31.8 48.36 31.97 48.24 32.15C48.07 32.4 47.92 32.67 47.8 32.96C47.73 33.13 47.67 33.3 47.62 33.48C46.78 33.6 45.96 33.79 45.17 34.05C44.49 34.27 43.82 34.55 43.18 34.88C42.43 35.27 41.72 35.72 41.06 36.23C40.48 36.68 39.94 37.18 39.43 37.72C38.76 38.44 38.19 39.21 37.7 40.03C37.36 40.62 37.06 41.23 36.81 41.87C36.51 42.63 36.28 43.4 36.13 44.19C35.97 45 35.9 45.82 35.9 46.66C35.9 48.38 36.11 50.13 36.53 51.91C36.88 53.39 37.38 54.88 38.02 56.36C38.12 56.59 38.22 56.82 38.32 57.05C38.75 57.96 39.21 58.86 39.73 59.73C40.17 60.47 40.6 61.14 41.04 61.75C41.13 61.87 41.22 61.97 41.32 62.07C41.46 62.19 41.62 62.3 41.79 62.39C41.93 62.46 42.08 62.51 42.24 62.55C42.4 62.59 42.58 62.61 42.75 62.61L45.46 62.61C45.62 62.61 45.78 62.6 45.93 62.56C46.05 62.54 46.17 62.5 46.28 62.45C46.41 62.4 46.53 62.33 46.65 62.26C46.75 62.19 46.85 62.11 46.94 62.02C47.06 61.9 47.16 61.78 47.24 61.65C47.3 61.56 47.35 61.47 47.39 61.36C47.45 61.24 47.49 61.12 47.52 60.99C47.55 60.85 47.56 60.71 47.56 60.57L47.56 59.82C48.06 59.9 48.56 59.94 49.06 59.96C49.22 59.96 49.38 59.96 49.54 59.96L55.6 59.96L55.6 60.57C55.6 60.71 55.61 60.85 55.64 60.99C55.67 61.12 55.71 61.24 55.76 61.36C55.81 61.47 55.86 61.56 55.92 61.65C56 61.78 56.1 61.9 56.21 62.02C56.31 62.11 56.4 62.19 56.51 62.26C56.63 62.33 56.75 62.4 56.88 62.45C56.99 62.5 57.11 62.54 57.22 62.56C57.38 62.6 57.53 62.61 57.69 62.61L60.67 62.61C60.79 62.61 60.91 62.6 61.03 62.58C61.14 62.56 61.26 62.53 61.38 62.49C61.49 62.45 61.6 62.41 61.7 62.35C61.8 62.29 61.9 62.23 61.99 62.16C62.1 62.07 62.2 61.97 62.3 61.86C62.35 61.79 62.4 61.72 62.45 61.65C62.52 61.53 62.59 61.41 62.63 61.29C62.67 61.19 62.7 61.1 62.72 61L63.03 59.57C63.64 59.42 64.23 59.24 64.81 59.01C65.2 58.86 65.59 58.69 65.97 58.5C66.47 58.25 66.96 57.96 67.42 57.65C67.82 57.39 68.2 57.11 68.57 56.8C69.03 56.41 69.47 56 69.88 55.56C70.16 55.25 70.43 54.92 70.69 54.59C71.09 54.06 71.45 53.51 71.76 52.94C71.93 52.64 72.08 52.33 72.22 52.02L74.68 52.02C74.79 52.02 74.89 52 74.99 51.98C75.07 51.96 75.15 51.94 75.23 51.91C75.32 51.87 75.4 51.83 75.48 51.77C75.55 51.73 75.62 51.67 75.68 51.61C75.76 51.54 75.82 51.45 75.88 51.37C75.92 51.3 75.95 51.24 75.98 51.17C76.02 51.09 76.05 51 76.07 50.92C76.09 50.82 76.1 50.73 76.1 50.63L76.1 45.33C76.1 45.23 76.08 45.13 76.06 45.03C76.04 44.95 76.02 44.88 75.99 44.8C75.96 44.74 75.93 44.68 75.9 44.63C75.84 44.53 75.76 44.44 75.68 44.35C75.61 44.28 75.53 44.22 75.45 44.17C75.38 44.13 75.3 44.09 75.22 44.05C75.15 44.03 75.09 44 75.02 43.99ZM72.16 51.92L74.68 51.92C75.4 51.92 76 51.34 76 50.63L76 45.33C76 44.99 75.86 44.67 75.61 44.43C75.36 44.18 75.03 44.05 74.68 44.05L74.68 44.05L73.04 44.05C73.02 44.05 73.01 44.03 73 44.01C72.55 41.86 71.55 39.83 70.09 38.15C68.68 36.52 66.88 35.24 64.86 34.43C64.54 33.1 63.85 31.72 62.5 30.69C61.19 29.68 59.88 29.49 59.82 29.48C59.64 29.46 59.45 29.51 59.31 29.63C59.17 29.75 59.09 29.92 59.09 30.1L59.09 33.45L58.99 33.45L56.78 33.45C56.21 31.54 54.4 30.14 52.26 30.14C50.07 30.14 48.23 31.6 47.7 33.57C44.55 33.99 41.65 35.48 39.5 37.79C37.24 40.22 36 43.37 36 46.66C36 54.03 39.92 60.03 41.12 61.69C41.5 62.21 42.11 62.51 42.75 62.51L45.46 62.51C46.56 62.51 47.46 61.64 47.46 60.57L47.46 59.71C47.49 59.71 47.53 59.72 47.56 59.72C48.21 59.82 48.88 59.86 49.54 59.86L55.6 59.86L55.7 59.86L55.7 60.57C55.7 61.64 56.59 62.51 57.69 62.51L60.67 62.51C61.61 62.51 62.43 61.87 62.62 60.98L62.95 59.49C67.14 58.49 70.5 55.63 72.16 51.92ZM74.72 50.63L74.72 45.33C74.72 45.33 74.72 45.32 74.71 45.3C74.7 45.29 74.68 45.29 74.68 45.29L73.04 45.29C72.42 45.29 71.88 44.86 71.76 44.25C71.35 42.31 70.44 40.47 69.12 38.95C68.03 37.69 66.69 36.67 65.2 35.94C65.16 35.93 65.13 35.91 65.09 35.89C65.1 35.93 65.1 35.97 65.1 36.01C65.12 36.25 65.12 36.49 65.12 36.72C65.12 37.06 64.84 37.34 64.49 37.34C64.14 37.34 63.85 37.06 63.85 36.72C63.85 32.84 61.7 31.43 60.47 30.95C60.43 30.94 60.4 30.92 60.37 30.91L60.37 36.06C60.37 36.4 60.08 36.68 59.73 36.68C59.38 36.68 59.09 36.4 59.09 36.06L59.09 34.69L56.97 34.69C56.97 34.71 56.97 34.72 56.97 34.73C56.97 34.75 56.97 34.77 56.97 34.79C56.97 35.2 56.9 35.61 56.79 36C56.78 36.03 56.77 36.07 56.76 36.1L57.01 36.1C57.37 36.1 57.65 36.38 57.65 36.72C57.65 37.06 57.37 37.34 57.01 37.34L47.5 37.34C47.15 37.34 46.87 37.06 46.87 36.72C46.87 36.38 47.15 36.1 47.5 36.1L47.76 36.1C47.75 36.07 47.74 36.03 47.73 36C47.63 35.66 47.57 35.31 47.55 34.95C47.55 34.92 47.55 34.88 47.55 34.85C47.51 34.86 47.48 34.86 47.45 34.87C44.76 35.32 42.3 36.63 40.44 38.63C38.4 40.83 37.27 43.68 37.27 46.66C37.27 53.67 41.02 59.39 42.17 60.98C42.3 61.16 42.52 61.27 42.75 61.27L45.46 61.27C45.86 61.27 46.19 60.96 46.19 60.57L46.19 53.94C46.19 53.6 46.47 53.32 46.82 53.32C47.17 53.32 47.46 53.6 47.46 53.94L47.46 58.45C48.14 58.56 48.84 58.62 49.54 58.62L55.7 58.62L55.7 57.92C55.7 57.58 55.98 57.3 56.33 57.3C56.69 57.3 56.97 57.58 56.97 57.92L56.97 60.57C56.97 60.96 57.3 61.27 57.69 61.27L60.67 61.27C61.01 61.27 61.31 61.04 61.38 60.72L62.89 53.81C62.97 53.48 63.31 53.27 63.65 53.34C63.99 53.41 64.21 53.74 64.14 54.07L63.27 58.01L63.25 58.12C63.29 58.11 63.32 58.1 63.36 58.09C68.23 56.63 71.72 52.32 71.99 47.29C72 46.95 72.3 46.68 72.66 46.7C73.01 46.72 73.28 47.01 73.26 47.35C73.2 48.46 73 49.54 72.67 50.57C72.66 50.61 72.65 50.64 72.64 50.67L74.68 50.67C74.7 50.67 74.72 50.65 74.72 50.63L74.72 50.63L74.72 50.63ZM74.62 50.53L74.62 45.39L73.04 45.39C72.88 45.39 72.73 45.37 72.58 45.32C72.43 45.26 72.28 45.18 72.15 45.08C72.01 44.96 71.9 44.84 71.82 44.69C71.74 44.57 71.69 44.43 71.66 44.27C71.6 43.98 71.52 43.69 71.44 43.4C71.25 42.74 71 42.11 70.69 41.49C70.49 41.08 70.26 40.68 70.01 40.3C69.72 39.85 69.4 39.42 69.04 39.01C68.9 38.85 68.76 38.7 68.61 38.55C68.18 38.09 67.71 37.68 67.2 37.29C66.88 37.05 66.54 36.81 66.19 36.6C65.87 36.41 65.54 36.22 65.2 36.06C65.22 36.28 65.22 36.5 65.22 36.72C65.22 36.82 65.21 36.91 65.17 36.99C65.14 37.08 65.08 37.16 65.01 37.23C64.94 37.3 64.86 37.35 64.78 37.39C64.69 37.42 64.59 37.44 64.49 37.44C64.38 37.44 64.28 37.42 64.2 37.39C64.11 37.35 64.04 37.3 63.97 37.23C63.89 37.16 63.84 37.08 63.8 36.99C63.77 36.91 63.75 36.82 63.75 36.72C63.75 34.99 63.33 33.6 62.49 32.55L62.48 32.55C62.34 32.37 62.19 32.2 62.02 32.05C61.82 31.86 61.6 31.69 61.37 31.53C61.2 31.42 61.02 31.31 60.83 31.22C60.71 31.16 60.59 31.11 60.47 31.06L60.47 36.06C60.47 36.15 60.45 36.24 60.42 36.33C60.38 36.42 60.33 36.5 60.25 36.57C60.18 36.64 60.11 36.69 60.02 36.72C59.93 36.76 59.84 36.78 59.73 36.78C59.63 36.78 59.53 36.76 59.44 36.72C59.36 36.69 59.28 36.64 59.21 36.57C59.14 36.5 59.08 36.42 59.05 36.33C59.01 36.24 58.99 36.15 58.99 36.06L58.99 34.79L57.07 34.79C57.07 34.98 57.06 35.16 57.03 35.35C57 35.57 56.96 35.78 56.89 36L57.01 36C57.12 36 57.22 36.02 57.31 36.06C57.39 36.09 57.47 36.14 57.53 36.21C57.61 36.28 57.66 36.36 57.7 36.45C57.73 36.54 57.75 36.62 57.75 36.72C57.75 36.82 57.73 36.91 57.7 36.99C57.66 37.08 57.61 37.16 57.53 37.23C57.47 37.3 57.39 37.35 57.31 37.39C57.22 37.42 57.12 37.44 57.01 37.44L47.5 37.44C47.4 37.44 47.3 37.42 47.21 37.39C47.13 37.35 47.05 37.3 46.98 37.23C46.91 37.16 46.85 37.08 46.82 36.99C46.78 36.91 46.77 36.82 46.77 36.72C46.77 36.63 46.78 36.54 46.82 36.45C46.85 36.36 46.91 36.28 46.98 36.21C47.05 36.14 47.13 36.09 47.21 36.06C47.3 36.02 47.4 36 47.5 36L47.62 36C47.57 35.82 47.53 35.64 47.5 35.45C47.48 35.29 47.46 35.13 47.45 34.97C46.75 35.09 46.07 35.26 45.41 35.49C44.83 35.7 44.27 35.94 43.72 36.23C43.08 36.57 42.48 36.96 41.92 37.41C41.42 37.8 40.95 38.23 40.52 38.69C39.92 39.33 39.41 40.02 38.98 40.76C38.67 41.28 38.41 41.82 38.18 42.39C37.91 43.06 37.71 43.75 37.58 44.45C37.44 45.17 37.37 45.91 37.37 46.66C37.37 48.28 37.57 49.93 37.97 51.61C38.3 53.01 38.77 54.41 39.38 55.81C39.44 55.96 39.51 56.11 39.57 56.25C40 57.19 40.47 58.11 41 59.01C41.41 59.7 41.83 60.34 42.25 60.92C42.28 60.96 42.31 61 42.35 61.03C42.39 61.06 42.42 61.09 42.47 61.11C42.49 61.12 42.52 61.13 42.55 61.14C42.61 61.16 42.68 61.17 42.75 61.17L45.46 61.17C45.55 61.17 45.64 61.16 45.71 61.12C45.78 61.09 45.85 61.05 45.9 60.99C45.97 60.93 46.02 60.86 46.05 60.79C46.07 60.72 46.09 60.65 46.09 60.57L46.09 53.94C46.09 53.85 46.1 53.76 46.14 53.68C46.17 53.59 46.23 53.51 46.3 53.43C46.37 53.37 46.45 53.31 46.53 53.28C46.62 53.24 46.72 53.22 46.82 53.22C46.93 53.22 47.03 53.24 47.12 53.28C47.2 53.31 47.27 53.37 47.34 53.43C47.42 53.51 47.47 53.59 47.51 53.68C47.54 53.76 47.56 53.85 47.56 53.94L47.56 58.37C48.05 58.44 48.54 58.49 49.03 58.51C49.2 58.52 49.37 58.52 49.54 58.52L55.6 58.52L55.6 57.92C55.6 57.82 55.61 57.73 55.65 57.65C55.68 57.56 55.74 57.48 55.81 57.41C55.88 57.34 55.96 57.29 56.04 57.25C56.13 57.22 56.23 57.2 56.33 57.2C56.44 57.2 56.54 57.22 56.63 57.25C56.71 57.29 56.79 57.34 56.85 57.41C56.93 57.48 56.99 57.56 57.02 57.65C57.05 57.73 57.07 57.82 57.07 57.92L57.07 60.57C57.07 60.65 57.08 60.72 57.11 60.79C57.14 60.86 57.19 60.93 57.25 60.99C57.31 61.05 57.38 61.09 57.45 61.12C57.52 61.16 57.6 61.17 57.69 61.17L60.67 61.17C60.74 61.17 60.81 61.16 60.88 61.14C60.94 61.12 61 61.08 61.06 61.04C61.13 60.99 61.18 60.93 61.22 60.86C61.25 60.81 61.27 60.75 61.28 60.69L62.8 53.79C62.82 53.7 62.85 53.62 62.9 53.54C62.96 53.46 63.03 53.4 63.12 53.34C63.2 53.29 63.29 53.25 63.38 53.23C63.47 53.22 63.57 53.22 63.67 53.24C63.78 53.26 63.87 53.3 63.95 53.36C64.02 53.41 64.08 53.47 64.14 53.55C64.19 53.64 64.23 53.73 64.25 53.82C64.26 53.91 64.26 54 64.24 54.1L63.38 57.98C63.99 57.79 64.57 57.57 65.14 57.29C65.64 57.05 66.13 56.77 66.6 56.46C67.17 56.08 67.7 55.65 68.19 55.19C68.58 54.82 68.95 54.43 69.29 54.01C69.75 53.43 70.16 52.82 70.51 52.18C70.73 51.76 70.93 51.33 71.11 50.88C71.34 50.29 71.52 49.69 71.65 49.08C71.78 48.49 71.85 47.89 71.89 47.28C71.89 47.19 71.91 47.1 71.95 47.02C71.99 46.93 72.05 46.85 72.13 46.78C72.2 46.72 72.28 46.67 72.37 46.64C72.46 46.61 72.56 46.59 72.66 46.6C72.77 46.61 72.86 46.63 72.95 46.67C73.03 46.71 73.1 46.77 73.17 46.84C73.24 46.91 73.29 47 73.32 47.09C73.35 47.17 73.36 47.26 73.36 47.36C73.33 47.89 73.27 48.42 73.18 48.95C73.08 49.49 72.94 50.04 72.77 50.57L74.62 50.57L74.62 50.53L74.62 50.53ZM52.26 31.38C54.15 31.38 55.7 32.88 55.7 34.73C55.7 35.21 55.59 35.67 55.4 36.1L49.12 36.1C48.92 35.67 48.82 35.21 48.82 34.73C48.82 32.88 50.36 31.38 52.26 31.38ZM49.18 36C49.09 35.78 49.02 35.55 48.97 35.32C48.94 35.13 48.92 34.93 48.92 34.73C48.92 34.51 48.94 34.28 48.99 34.07C49.03 33.86 49.1 33.66 49.18 33.47C49.25 33.31 49.33 33.16 49.42 33.02C49.55 32.81 49.71 32.62 49.9 32.44C50.04 32.29 50.2 32.16 50.37 32.05C50.55 31.93 50.75 31.82 50.96 31.74C51.14 31.66 51.32 31.61 51.5 31.56C51.75 31.51 52 31.48 52.26 31.48C52.52 31.48 52.77 31.51 53.01 31.56C53.2 31.61 53.38 31.66 53.56 31.74C53.77 31.82 53.96 31.93 54.15 32.05C54.32 32.16 54.47 32.29 54.62 32.44C54.8 32.62 54.96 32.81 55.1 33.02C55.19 33.16 55.27 33.31 55.34 33.47C55.42 33.66 55.48 33.86 55.53 34.07C55.57 34.28 55.6 34.51 55.6 34.73C55.6 34.93 55.58 35.13 55.54 35.33C55.5 35.56 55.43 35.78 55.33 36L49.18 36Z" fill="#FFFFFF" fill-opacity="1.000000" fill-rule="evenodd"/>
	<path id="Vector" d="M69.16 44.45C68.77 43.42 67.72 42.72 66.56 42.72C65.4 42.72 64.35 43.42 63.95 44.45C63.83 44.77 64 45.13 64.33 45.25C64.66 45.37 65.02 45.21 65.15 44.89C65.36 44.34 65.92 43.97 66.56 43.97C67.19 43.97 67.76 44.34 67.97 44.89C68.06 45.14 68.31 45.29 68.56 45.29C68.64 45.29 68.71 45.28 68.79 45.25C69.12 45.13 69.28 44.77 69.16 44.45Z" fill="#FFFFFF" fill-opacity="1.000000" fill-rule="nonzero"/>
	<path id="Vector" d="M67.03 42.66C66.88 42.64 66.72 42.62 66.56 42.62C66.4 42.62 66.24 42.64 66.08 42.66C65.95 42.68 65.82 42.71 65.69 42.75C65.52 42.8 65.36 42.87 65.2 42.95C65.1 43 65.01 43.06 64.91 43.12C64.74 43.23 64.59 43.36 64.45 43.5C64.39 43.56 64.34 43.62 64.29 43.68C64.17 43.83 64.07 43.98 63.98 44.15C63.94 44.23 63.9 44.32 63.86 44.42C63.82 44.51 63.81 44.6 63.81 44.7C63.81 44.79 63.84 44.88 63.88 44.97C63.92 45.06 63.97 45.13 64.04 45.19C64.11 45.26 64.19 45.31 64.29 45.35C64.39 45.38 64.48 45.4 64.58 45.39C64.67 45.39 64.76 45.37 64.86 45.33C64.95 45.28 65.03 45.23 65.1 45.15C65.16 45.09 65.21 45.01 65.24 44.92C65.28 44.83 65.32 44.74 65.37 44.66C65.47 44.52 65.59 44.4 65.75 44.3C65.85 44.24 65.96 44.18 66.07 44.14C66.23 44.09 66.39 44.07 66.56 44.07C66.73 44.07 66.89 44.09 67.04 44.14C67.15 44.18 67.26 44.24 67.37 44.3C67.52 44.4 67.64 44.52 67.74 44.66C67.79 44.74 67.84 44.83 67.87 44.92C67.9 44.99 67.93 45.05 67.98 45.11C68.02 45.17 68.08 45.22 68.15 45.27C68.21 45.31 68.28 45.34 68.34 45.36C68.41 45.38 68.49 45.39 68.56 45.39C68.6 45.39 68.65 45.39 68.68 45.38C68.73 45.37 68.78 45.36 68.82 45.35C68.92 45.31 69.01 45.26 69.08 45.19C69.14 45.13 69.19 45.06 69.23 44.97C69.28 44.88 69.3 44.79 69.3 44.7C69.31 44.6 69.29 44.51 69.25 44.42C69.22 44.32 69.18 44.23 69.13 44.15C69.05 43.98 68.95 43.83 68.83 43.68C68.78 43.62 68.72 43.56 68.67 43.5C68.53 43.36 68.37 43.23 68.2 43.12C68.11 43.06 68.01 43 67.91 42.95C67.76 42.87 67.6 42.8 67.43 42.75C67.3 42.71 67.17 42.68 67.03 42.66ZM69.16 44.45C68.77 43.42 67.72 42.72 66.56 42.72C65.4 42.72 64.35 43.42 63.95 44.45C63.83 44.77 64 45.13 64.33 45.25C64.66 45.37 65.02 45.21 65.15 44.89C65.36 44.34 65.92 43.97 66.56 43.97C67.19 43.97 67.76 44.34 67.97 44.89C68.06 45.14 68.31 45.29 68.56 45.29C68.64 45.29 68.71 45.28 68.79 45.25C69.12 45.13 69.28 44.77 69.16 44.45Z" fill="#FFFFFF" fill-opacity="1.000000" fill-rule="evenodd"/>
	<path id="Vector" d="M52.9 46.18L52.9 43.01C54.14 43.16 55.02 43.72 55.02 44.24C55.02 44.58 55.3 44.86 55.66 44.86C56.01 44.86 56.29 44.58 56.29 44.24C56.29 42.97 54.84 41.95 52.9 41.76L52.9 41.69C52.9 41.35 52.61 41.07 52.26 41.07C51.91 41.07 51.62 41.35 51.62 41.69L51.62 41.76C49.67 41.95 48.22 42.97 48.22 44.24C48.22 46.05 50.06 46.7 51.62 47.13L51.62 50.3C50.37 50.16 49.5 49.59 49.5 49.08C49.5 48.74 49.21 48.46 48.86 48.46C48.51 48.46 48.22 48.74 48.22 49.08C48.22 50.35 49.67 51.37 51.62 51.55L51.62 51.63C51.62 51.97 51.91 52.25 52.26 52.25C52.61 52.25 52.9 51.97 52.9 51.63L52.9 51.55C54.84 51.37 56.29 50.35 56.29 49.08C56.29 47.27 54.45 46.61 52.9 46.18ZM51.62 45.83C50.05 45.35 49.5 44.91 49.5 44.24C49.5 43.72 50.37 43.16 51.62 43.01L51.62 45.83ZM52.9 50.3L52.9 47.48C54.46 47.96 55.02 48.4 55.02 49.08C55.02 49.59 54.14 50.16 52.9 50.3Z" fill="#FFFFFF" fill-opacity="1.000000" fill-rule="nonzero"/>
	<path id="Vector" d="M52.9 43.11L52.9 46.18C54.45 46.61 56.29 47.27 56.29 49.08C56.29 50.35 54.84 51.37 52.9 51.55L52.9 51.63C52.9 51.97 52.61 52.25 52.26 52.25C51.91 52.25 51.62 51.97 51.62 51.63L51.62 51.55C49.67 51.37 48.22 50.35 48.22 49.08C48.22 48.74 48.51 48.46 48.86 48.46C49.21 48.46 49.5 48.74 49.5 49.08C49.5 49.58 50.33 50.13 51.52 50.29C51.55 50.3 51.59 50.3 51.62 50.3L51.62 47.13C50.06 46.7 48.22 46.05 48.22 44.24C48.22 42.97 49.67 41.95 51.62 41.76L51.62 41.69C51.62 41.35 51.91 41.07 52.26 41.07C52.61 41.07 52.9 41.35 52.9 41.69L52.9 41.76C54.84 41.95 56.29 42.97 56.29 44.24C56.29 44.58 56.01 44.86 55.66 44.86C55.3 44.86 55.02 44.58 55.02 44.24C55.02 43.74 54.19 43.19 53 43.02C52.96 43.02 52.93 43.01 52.9 43.01L52.9 43.11ZM53 43.12L53 46.11C53.44 46.23 53.81 46.35 54.12 46.47C54.56 46.64 54.93 46.82 55.23 47.03C55.71 47.35 56.04 47.73 56.22 48.17C56.33 48.45 56.39 48.75 56.39 49.08C56.39 49.18 56.38 49.27 56.37 49.36C56.33 49.59 56.25 49.81 56.12 50.03C55.95 50.32 55.7 50.57 55.38 50.8C55.07 51.03 54.7 51.22 54.28 51.36C53.88 51.5 53.45 51.6 53 51.64C52.99 51.73 52.98 51.82 52.94 51.89C52.91 51.98 52.85 52.06 52.78 52.14C52.71 52.2 52.63 52.25 52.55 52.29C52.46 52.33 52.36 52.35 52.26 52.35C52.15 52.35 52.06 52.33 51.97 52.29C51.88 52.25 51.81 52.2 51.74 52.14C51.66 52.06 51.61 51.98 51.57 51.89C51.54 51.82 51.52 51.73 51.52 51.64C51.07 51.6 50.64 51.5 50.24 51.36C49.82 51.22 49.45 51.03 49.13 50.8C48.81 50.57 48.57 50.32 48.4 50.03C48.27 49.81 48.18 49.59 48.15 49.36C48.13 49.27 48.12 49.18 48.12 49.08C48.12 48.98 48.14 48.89 48.17 48.81C48.21 48.72 48.27 48.64 48.34 48.57C48.41 48.5 48.49 48.45 48.57 48.42C48.66 48.38 48.76 48.36 48.86 48.36C48.97 48.36 49.06 48.38 49.15 48.42C49.24 48.45 49.31 48.5 49.38 48.57C49.46 48.64 49.51 48.72 49.55 48.81C49.58 48.89 49.6 48.98 49.6 49.08C49.6 49.18 49.64 49.29 49.73 49.4C49.83 49.52 49.96 49.64 50.14 49.74C50.33 49.85 50.55 49.95 50.79 50.03C51.02 50.1 51.26 50.15 51.52 50.19L51.52 47.21C51.08 47.08 50.7 46.96 50.4 46.85C49.96 46.68 49.58 46.49 49.28 46.29C48.81 45.96 48.48 45.58 48.3 45.14C48.18 44.86 48.12 44.56 48.12 44.24C48.12 44.14 48.13 44.04 48.15 43.95C48.18 43.72 48.27 43.5 48.4 43.29C48.57 43 48.81 42.74 49.13 42.51C49.45 42.28 49.82 42.1 50.24 41.95C50.64 41.81 51.07 41.72 51.52 41.67C51.52 41.58 51.54 41.5 51.57 41.42C51.61 41.33 51.66 41.25 51.74 41.18C51.81 41.11 51.88 41.06 51.97 41.02C52.06 40.99 52.15 40.97 52.26 40.97C52.36 40.97 52.46 40.99 52.55 41.02C52.63 41.06 52.71 41.11 52.78 41.18C52.85 41.25 52.91 41.33 52.94 41.42C52.98 41.5 52.99 41.58 53 41.67C53.45 41.72 53.88 41.81 54.28 41.95C54.7 42.1 55.07 42.28 55.38 42.51C55.7 42.74 55.95 43 56.12 43.29C56.25 43.5 56.33 43.72 56.37 43.95C56.38 44.04 56.39 44.14 56.39 44.24C56.39 44.33 56.38 44.42 56.34 44.5C56.31 44.59 56.25 44.67 56.18 44.75C56.11 44.81 56.03 44.86 55.95 44.9C55.86 44.94 55.76 44.96 55.66 44.96C55.55 44.96 55.45 44.94 55.36 44.9C55.28 44.86 55.2 44.81 55.14 44.75C55.06 44.67 55 44.59 54.97 44.5C54.94 44.42 54.92 44.33 54.92 44.24C54.92 44.13 54.87 44.02 54.78 43.91C54.69 43.79 54.55 43.68 54.37 43.57C54.19 43.46 53.97 43.37 53.72 43.29C53.49 43.21 53.25 43.16 53 43.12ZM49.68 44.62C49.63 44.51 49.6 44.38 49.6 44.24C49.6 44.13 49.64 44.02 49.73 43.91C49.83 43.79 49.96 43.68 50.14 43.57C50.33 43.46 50.55 43.37 50.79 43.29C51.02 43.21 51.26 43.16 51.52 43.12L51.52 45.69C50.82 45.47 50.33 45.25 50.03 45.03C49.88 44.91 49.77 44.79 49.7 44.66C49.69 44.65 49.69 44.64 49.68 44.62ZM51.62 45.73L51.62 45.83C51.59 45.82 51.55 45.81 51.52 45.8C50.03 45.33 49.5 44.9 49.5 44.24C49.5 43.74 50.33 43.19 51.52 43.02C51.55 43.02 51.59 43.01 51.62 43.01L51.62 45.73ZM52.9 47.59L52.9 50.3C52.93 50.3 52.96 50.3 53 50.29C54.19 50.13 55.02 49.58 55.02 49.08C55.02 48.41 54.49 47.98 53 47.52C52.96 47.5 52.93 47.49 52.9 47.48L52.9 47.59ZM53 47.62L53 50.19C53.25 50.15 53.49 50.1 53.72 50.03C53.97 49.95 54.19 49.85 54.37 49.74C54.55 49.64 54.69 49.52 54.78 49.4C54.87 49.29 54.92 49.18 54.92 49.08C54.92 48.94 54.89 48.81 54.84 48.69C54.83 48.68 54.82 48.67 54.82 48.66C54.75 48.53 54.64 48.4 54.48 48.29C54.19 48.06 53.69 47.84 53 47.62Z" fill="#FFFFFF" fill-opacity="1.000000" fill-rule="evenodd"/>
</svg>
